<?xml version="1.0" encoding="utf-8"?>
<!-- Generator: Adobe Illustrator 24.3.0, SVG Export Plug-In . SVG Version: 6.00 Build 0)  -->
<svg version="1.1" id="圖層_1" xmlns="http://www.w3.org/2000/svg" xmlns:xlink="http://www.w3.org/1999/xlink" x="0px" y="0px"
	 viewBox="0 0 223.4 263.6" style="enable-background:new 0 0 223.4 263.6;" xml:space="preserve">
<style type="text/css">
	.st0{fill:none;}
	.st1{enable-background:new    ;}
	.st2{fill:#FFFFFF;}
</style>
<g id="BACKGROUND">
</g>
<g id="OBJECTS">
	<g>
		<rect x="-0.1" y="200.4" class="st0" width="223.4" height="74.5"/>
		<g class="st1">
			<path class="st2" d="M31.8,203.7c-1.1-0.2-2.4-0.3-4-0.3c-1.3,0-2.6,0.2-3.9,0.7c-1.2,0.5-2.3,1.2-3.3,2.3
				c-0.9,1.1-1.7,2.5-2.3,4.3c-0.6,1.8-0.8,3.9-0.8,6.5c0,4.7,0.9,8.2,2.6,10.5c1.7,2.2,4.3,3.4,7.6,3.4c2.1,0,3.8-0.4,5.2-1.2v-9.4
				h-7v-3.2h10.4V232c-0.5,0.4-1.1,0.7-1.8,1.1c-0.7,0.3-1.5,0.6-2.3,0.8c-0.8,0.2-1.7,0.4-2.5,0.5c-0.9,0.1-1.7,0.2-2.6,0.2
				c-2.1,0-4.1-0.3-5.8-1c-1.7-0.7-3.1-1.7-4.3-3.2c-1.2-1.4-2.1-3.2-2.7-5.4c-0.6-2.2-1-4.8-1-7.8c0-3.1,0.4-5.8,1.2-8
				c0.8-2.2,1.9-4,3.2-5.4c1.3-1.4,2.8-2.4,4.5-3c1.7-0.6,3.4-1,5.2-1c1.9,0,3.5,0.1,4.8,0.3c1.2,0.2,2.3,0.5,3.2,0.8l0,0.2v8h-3.6
				V203.7z"/>
			<path class="st2" d="M65,230.9c-0.6,0.5-1.3,1-2,1.4c-0.8,0.4-1.6,0.8-2.6,1.2c-0.9,0.3-1.9,0.6-2.9,0.7c-1,0.2-2,0.3-3,0.3
				c-1.9,0-3.6-0.3-5.1-0.9c-1.5-0.6-2.7-1.4-3.7-2.5c-1-1.1-1.7-2.4-2.3-4c-0.5-1.5-0.8-3.3-0.8-5.2c0-2,0.3-3.8,0.8-5.4
				c0.6-1.6,1.4-2.9,2.4-3.9s2.3-1.9,3.8-2.4c1.5-0.6,3.2-0.8,5-0.8c1.3,0,2.7,0.2,4,0.5c1.3,0.4,2.5,1,3.5,2c1,1,1.8,2.3,2.3,4
				c0.5,1.7,0.7,3.9,0.6,6.6H46.6c0,2.9,0.8,5,2.3,6.5s3.6,2.1,6.2,2.1c0.9,0,1.7-0.1,2.6-0.3c0.8-0.2,1.7-0.5,2.4-0.7
				c0.8-0.3,1.4-0.6,2-1c0.6-0.4,1-0.7,1.4-1L65,230.9z M54.9,212.5c-1.1,0-2,0.1-3,0.3c-0.9,0.2-1.8,0.6-2.5,1.1
				c-0.7,0.5-1.3,1.2-1.8,2.1c-0.5,0.8-0.8,1.9-0.9,3.1h14.9c-0.2-2.1-0.8-3.8-2-4.9S56.8,212.5,54.9,212.5z"/>
			<path class="st2" d="M74.1,200.3h8v25.5c0,2,0.3,3.3,1,4.1c0.7,0.8,1.6,1.2,2.9,1.2c0.9,0,1.8-0.2,2.6-0.5
				c0.8-0.3,1.7-0.9,2.7-1.6l1.7,2.6c-0.5,0.4-1.1,0.8-1.7,1.2c-0.6,0.4-1.2,0.6-1.9,0.9s-1.3,0.4-1.9,0.6c-0.6,0.1-1.2,0.2-1.8,0.2
				c-1.2,0-2.2-0.2-3.2-0.5c-0.9-0.3-1.7-0.8-2.3-1.5c-0.6-0.7-1.1-1.6-1.4-2.7s-0.5-2.5-0.5-4.1v-22.3h-4.2V200.3z"/>
			<path class="st2" d="M106.6,212.9l-2.6-4.8h-0.2l0.5,4.8v21h-3.8v-33.6h2.6l13.5,20.9l2.5,4.6h0.2l-0.5-4.6v-20.9h3.8v33.6H120
				L106.6,212.9z"/>
			<path class="st2" d="M131.2,211.8c1.4-0.8,2.9-1.4,4.7-1.7c1.7-0.4,3.4-0.5,5.1-0.5c1.6,0,3,0.3,4,0.8c1,0.5,1.9,1.2,2.4,2
				s1,1.7,1.2,2.8c0.2,1,0.3,2.1,0.3,3.1c0,1.2,0,2.5-0.1,3.9c-0.1,1.4-0.1,2.8-0.1,4.1c0,1.6,0.1,3.1,0.3,4.6h3.2v3.1h-6.3
				l-0.4-3.6h-0.2c-0.2,0.3-0.5,0.7-0.9,1.1c-0.4,0.4-0.9,0.9-1.5,1.3c-0.6,0.4-1.4,0.8-2.3,1.1c-0.9,0.3-2,0.5-3.2,0.5
				c-2.4,0-4.3-0.6-5.6-1.8c-1.4-1.2-2.1-2.9-2.1-5c0-1.6,0.4-3,1.1-4.1c0.7-1.1,1.8-1.9,3.1-2.5s3-0.9,4.9-1c1.9-0.1,4.1,0,6.4,0.4
				c0.2-1.5,0.2-2.7,0.1-3.7s-0.4-1.8-0.8-2.3c-0.4-0.6-1-1-1.7-1.2s-1.6-0.4-2.7-0.4c-1.4,0-2.8,0.2-4.1,0.6s-2.5,0.8-3.5,1.2
				L131.2,211.8z M138.3,231.2c0.9,0,1.7-0.1,2.5-0.4c0.8-0.3,1.4-0.7,2-1.1c0.6-0.4,1.1-0.9,1.4-1.5c0.4-0.5,0.7-1,0.9-1.5v-3.4
				c-1.7-0.3-3.2-0.4-4.6-0.4s-2.6,0.2-3.6,0.5c-1,0.3-1.8,0.8-2.4,1.4c-0.6,0.6-0.9,1.5-0.9,2.5c0,1.1,0.4,2,1.1,2.8
				C135.4,230.8,136.6,231.2,138.3,231.2z"/>
			<path class="st2" d="M159.8,233.9v-3.2h8.4v-17.6h-8.4v-3.2H172v20.8h8.2v3.2H159.8z M166.8,203.1c0-0.9,0.3-1.6,0.9-2.2
				c0.6-0.6,1.3-0.9,2.2-0.9c0.9,0,1.7,0.3,2.3,0.9c0.6,0.6,0.9,1.4,0.9,2.2c0,0.8-0.3,1.5-0.9,2.1s-1.4,0.9-2.3,0.9
				c-0.9,0-1.6-0.3-2.2-0.9S166.8,204,166.8,203.1z"/>
			<path class="st2" d="M189.3,200.3h8v25.5c0,2,0.3,3.3,1,4.1c0.7,0.8,1.6,1.2,2.9,1.2c0.9,0,1.8-0.2,2.6-0.5
				c0.8-0.3,1.7-0.9,2.7-1.6l1.7,2.6c-0.5,0.4-1.1,0.8-1.7,1.2c-0.6,0.4-1.2,0.6-1.9,0.9c-0.6,0.2-1.3,0.4-1.9,0.6
				c-0.6,0.1-1.2,0.2-1.8,0.2c-1.2,0-2.2-0.2-3.2-0.5c-0.9-0.3-1.7-0.8-2.3-1.5c-0.6-0.7-1.1-1.6-1.4-2.7c-0.3-1.1-0.5-2.5-0.5-4.1
				v-22.3h-4.2V200.3z"/>
		</g>
	</g>
	<path class="st2" d="M135.8,82.1v-3.8c0-13.3-10.8-24.2-24.1-24.2S87.6,65,87.6,78.3v3.8c-5.8,6.3-9.4,14.8-9.4,24.1v77.2h67v-77.2
		C145.2,96.8,141.6,88.3,135.8,82.1z M140.9,179H82.6v-72.8c0-6.3,1.9-12.2,5.1-17.1v33.8c0,3.2,0.8,6.3,2.2,9.2
		c3.9,7.7,12.5,12.6,21.8,12.6c9.3,0,17.9-4.9,21.9-12.6c1.5-2.9,2.2-6,2.2-9.2V89.1c3.2,4.9,5.1,10.8,5.1,17.1V179z M92,78.3
		c0-0.1,0-0.1,0-0.2c0.1-10.8,8.9-19.6,19.7-19.6s19.6,8.8,19.7,19.6c0,0.1,0,0.1,0,0.2v2.6v3v39.1c0,2.5-0.6,4.9-1.8,7.2
		c-3.2,6.2-10.2,10.2-17.9,10.2s-14.8-4-17.9-10.2c-1.2-2.3-1.8-4.7-1.8-7.2V83.8v-3L92,78.3L92,78.3z"/>
</g>
</svg>
