<?xml version="1.0" encoding="utf-8"?>
<!-- Generator: Adobe Illustrator 24.3.0, SVG Export Plug-In . SVG Version: 6.00 Build 0)  -->
<svg version="1.1" xmlns="http://www.w3.org/2000/svg" xmlns:xlink="http://www.w3.org/1999/xlink" x="0px" y="0px"
	 viewBox="0 0 435.46 102.65" style="enable-background:new 0 0 435.46 102.65;" xml:space="preserve">
<style type="text/css">
	.st0{fill:#96C9C3;}
</style>
<g id="BACKGROUND">
</g>
<g id="OBJECTS">
	<g>
		<g>
			<path class="st0" d="M121.54,39.12c-1.94-0.4-4.31-0.6-7.11-0.6c-2.4,0-4.7,0.41-6.9,1.24c-2.2,0.83-4.14,2.21-5.83,4.14
				c-1.69,1.94-3.03,4.47-4.03,7.6c-1,3.13-1.5,7-1.5,11.61c0,8.43,1.56,14.63,4.67,18.62c3.11,3.99,7.61,5.98,13.49,5.98
				c3.66,0,6.77-0.71,9.34-2.14V68.92h-12.38V63.2h18.45v26.3c-0.91,0.68-2.01,1.31-3.29,1.88c-1.28,0.57-2.65,1.05-4.1,1.45
				c-1.45,0.4-2.96,0.7-4.53,0.9c-1.57,0.2-3.09,0.3-4.57,0.3c-3.82,0-7.23-0.61-10.25-1.84c-3.02-1.22-5.58-3.1-7.69-5.64
				c-2.11-2.53-3.73-5.75-4.87-9.65c-1.14-3.9-1.71-8.5-1.71-13.79c0-5.52,0.71-10.25,2.14-14.18c1.42-3.93,3.3-7.13,5.64-9.61
				c2.33-2.48,5.01-4.28,8.03-5.42c3.02-1.14,6.12-1.71,9.31-1.71c3.42,0,6.23,0.19,8.45,0.55c2.22,0.37,4.1,0.87,5.64,1.49
				l-0.09,0.34v14.26h-6.32V39.12z"/>
			<path class="st0" d="M180.63,87.62c-1.03,0.91-2.24,1.77-3.63,2.56c-1.4,0.8-2.92,1.48-4.57,2.05c-1.65,0.57-3.37,1.01-5.17,1.32
				c-1.79,0.31-3.6,0.47-5.42,0.47c-3.42,0-6.43-0.53-9.05-1.58c-2.62-1.05-4.81-2.56-6.58-4.53c-1.77-1.96-3.1-4.31-4.01-7.05
				c-0.91-2.73-1.37-5.81-1.37-9.22c0-3.59,0.5-6.77,1.49-9.56c1-2.79,2.43-5.12,4.31-7c1.88-1.88,4.16-3.32,6.83-4.31
				c2.68-1,5.66-1.49,8.97-1.49c2.39,0,4.75,0.31,7.09,0.94c2.33,0.63,4.4,1.81,6.19,3.54c1.79,1.74,3.17,4.13,4.14,7.17
				c0.97,3.05,1.31,6.99,1.03,11.83h-32.96c0,5.12,1.38,8.95,4.13,11.49c2.75,2.53,6.43,3.8,11.03,3.8c1.53,0,3.05-0.18,4.56-0.55
				c1.5-0.37,2.94-0.81,4.3-1.32c1.36-0.51,2.57-1.08,3.62-1.71c1.05-0.63,1.86-1.2,2.43-1.71L180.63,87.62z M162.65,54.92
				c-1.87,0-3.65,0.2-5.32,0.6c-1.67,0.4-3.15,1.07-4.43,2.01c-1.28,0.94-2.33,2.16-3.15,3.67c-0.82,1.51-1.35,3.37-1.57,5.59h26.47
				c-0.28-3.76-1.49-6.67-3.62-8.75C168.91,55.96,166.11,54.92,162.65,54.92z"/>
			<path class="st0" d="M196.86,33.23h14.26v45.43c0,3.47,0.58,5.92,1.75,7.35c1.17,1.42,2.89,2.13,5.17,2.13
				c1.59,0,3.12-0.28,4.57-0.85c1.45-0.57,3.06-1.54,4.82-2.9l3.07,4.7c-0.91,0.8-1.91,1.51-3,2.14c-1.09,0.63-2.2,1.15-3.34,1.58
				c-1.14,0.43-2.28,0.75-3.43,0.98c-1.14,0.23-2.2,0.34-3.17,0.34c-2.11,0-4-0.27-5.66-0.81c-1.66-0.54-3.04-1.41-4.16-2.6
				c-1.11-1.2-1.96-2.78-2.53-4.74c-0.57-1.97-0.86-4.4-0.86-7.3V38.95h-7.52V33.23z"/>
			<path class="st0" d="M254.73,55.6l-4.59-8.62h-0.35l0.87,8.62v37.41h-6.75V33.23h4.67l23.97,37.23l4.42,8.2h0.43l-0.95-8.2V33.23
				h6.75v59.78h-4.67L254.73,55.6z"/>
			<path class="st0" d="M298.4,53.64c2.45-1.42,5.21-2.45,8.28-3.08c3.08-0.63,6.09-0.94,9.05-0.94c2.9,0,5.28,0.46,7.13,1.37
				c1.85,0.91,3.3,2.09,4.36,3.54c1.05,1.45,1.77,3.1,2.14,4.95c0.37,1.85,0.56,3.71,0.56,5.59c0,2.16-0.06,4.47-0.17,6.92
				c-0.11,2.45-0.2,4.9-0.26,7.34c0,2.85,0.17,5.55,0.51,8.11h5.72v5.55h-11.28l-0.76-6.4h-0.43c-0.34,0.51-0.86,1.17-1.54,1.96
				c-0.69,0.8-1.58,1.58-2.7,2.35c-1.11,0.77-2.47,1.44-4.07,2.01c-1.6,0.57-3.49,0.85-5.65,0.85c-4.23,0-7.57-1.08-10.02-3.24
				c-2.46-2.16-3.68-5.13-3.68-8.88c0-2.9,0.64-5.32,1.93-7.26c1.29-1.94,3.13-3.42,5.53-4.44c2.4-1.03,5.3-1.62,8.69-1.79
				c3.4-0.17,7.21,0.06,11.44,0.68c0.28-2.62,0.33-4.8,0.13-6.53c-0.2-1.74-0.66-3.12-1.37-4.14c-0.71-1.03-1.71-1.75-3-2.18
				c-1.29-0.43-2.87-0.64-4.76-0.64c-2.57,0-5.03,0.36-7.37,1.07c-2.34,0.71-4.43,1.44-6.25,2.18L298.4,53.64z M311.04,88.05
				c1.59,0,3.07-0.26,4.44-0.77c1.37-0.51,2.56-1.17,3.59-1.97c1.03-0.8,1.88-1.66,2.56-2.6c0.68-0.94,1.2-1.84,1.54-2.69v-5.98
				c-2.96-0.51-5.69-0.77-8.2-0.77c-2.51,0-4.67,0.27-6.49,0.81c-1.82,0.54-3.24,1.38-4.27,2.52c-1.03,1.14-1.54,2.62-1.54,4.44
				c0,1.88,0.64,3.51,1.92,4.91C305.87,87.35,308.02,88.05,311.04,88.05z"/>
			<path class="st0" d="M349.38,93.01v-5.72h14.86V56.03h-14.86v-5.72h21.61v36.98h14.52v5.72H349.38z M361.85,38.18
				c0-1.54,0.51-2.86,1.54-3.97s2.33-1.67,3.93-1.67c1.65,0,3.03,0.56,4.14,1.67s1.66,2.43,1.66,3.97c0,1.48-0.55,2.73-1.66,3.76
				c-1.11,1.03-2.49,1.54-4.14,1.54c-1.59,0-2.9-0.51-3.93-1.54C362.36,40.91,361.85,39.66,361.85,38.18z"/>
			<path class="st0" d="M401.82,33.23h14.26v45.43c0,3.47,0.58,5.92,1.75,7.35c1.17,1.42,2.89,2.13,5.17,2.13
				c1.59,0,3.12-0.28,4.57-0.85c1.45-0.57,3.06-1.54,4.83-2.9l3.07,4.7c-0.91,0.8-1.91,1.51-3,2.14c-1.09,0.63-2.2,1.15-3.34,1.58
				c-1.14,0.43-2.28,0.75-3.43,0.98c-1.14,0.23-2.2,0.34-3.17,0.34c-2.11,0-4-0.27-5.65-0.81c-1.66-0.54-3.04-1.41-4.16-2.6
				s-1.96-2.78-2.53-4.74c-0.57-1.97-0.86-4.4-0.86-7.3V38.95h-7.51V33.23z"/>
		</g>
	</g>
	<path class="st0" d="M45.74,22.19V19.2C45.74,8.61,37.16,0,26.62,0C16.07,0,7.49,8.61,7.49,19.2v2.98C2.86,27.15,0,33.91,0,41.35
		v61.3h53.23v-61.3C53.23,33.91,50.37,27.15,45.74,22.19z M49.76,99.18H3.47V41.35c0-5.03,1.48-9.7,4.02-13.57V54.6
		c0,2.55,0.6,5.01,1.78,7.31C12.4,68,19.2,71.94,26.62,71.94c7.41,0,14.22-3.93,17.34-10.02c1.18-2.3,1.78-4.76,1.78-7.31V27.78
		c2.53,3.87,4.02,8.54,4.02,13.57V99.18z M10.97,19.2c0-0.05,0-0.1,0-0.16c0.08-8.6,7.07-15.57,15.64-15.57
		c8.58,0,15.56,6.97,15.64,15.57c0,0.05,0,0.1,0,0.16v2.05v2.35v31c0,1.99-0.47,3.92-1.39,5.72c-2.54,4.94-8.13,8.13-14.25,8.13
		s-11.72-3.19-14.25-8.13c-0.93-1.8-1.39-3.73-1.39-5.72v-31v-2.35V19.2z"/>
</g>
</svg>
